<svg width="440" height="392" viewBox="0 0 440 392" fill="none" xmlns="http://www.w3.org/2000/svg">
<path d="M100 190.204H107.641H113.956V198.955H107.641V221.539H113.956V190.204L144.247 189.64L143.928 222.668V227.184H136.606V222.668H118.074V227.184H143.928V236.5H100V190.204Z" fill="url(#paint0_linear_227_48)"/>
<path d="M252.831 76.4414L319.18 35.7916V73.3362L286.921 94.7903L340 132.335V165.081L253.06 233.395V183.712L304.537 148.143L252.831 112.857V76.4414Z" fill="url(#paint1_linear_227_48)"/>
<rect x="217.369" y="79.2643" width="28.8275" height="98.237" fill="url(#paint2_linear_227_48)"/>
<path d="M195.405 134.029L210.734 145.603V233.677L195.405 221.256V134.029Z" fill="url(#paint3_linear_227_48)"/>
<rect x="217.369" y="185.97" width="28.8275" height="50.2477" fill="url(#paint4_linear_227_48)"/>
<path d="M144.156 35.227L210.734 76.7237V136.005L144.156 87.733V35.227Z" fill="url(#paint5_linear_227_48)"/>
<path d="M144.156 96.484L189.228 130.077V216.74L144.156 181.171V96.484Z" fill="url(#paint6_linear_227_48)"/>
<path d="M160.629 36.3562L181.22 24.5L225.834 71.3602H216.683L174.814 45.1072L160.629 36.3562Z" fill="url(#paint7_linear_227_48)"/>
<path d="M303.165 36.3562L282.574 24.5L237.96 71.3602H247.111L288.98 45.1072L303.165 36.3562Z" fill="url(#paint8_linear_227_48)"/>
<path d="M43.2969 334.5V269.766H54.3125V299.625H54.6875L78.2188 269.766H90.4531L70.4844 294.984L93.8281 334.5H81.6875L63.9219 303.609L54.3125 315.422V334.5H43.2969ZM121.766 335.672C117.328 335.672 113.312 334.672 109.719 332.672C106.125 330.641 103.266 327.734 101.141 323.953C99.0156 320.172 97.9531 315.609 97.9531 310.266C97.9531 305.016 99.0156 300.484 101.141 296.672C103.297 292.859 106.078 289.922 109.484 287.859C112.891 285.797 116.484 284.766 120.266 284.766C126.734 284.766 131.672 286.906 135.078 291.188C138.484 295.438 140.188 300.984 140.188 307.828C140.188 308.859 140.141 309.859 140.047 310.828C139.953 311.797 139.844 312.594 139.719 313.219H108.641C109.078 317.625 110.609 321.062 113.234 323.531C115.859 326 119.172 327.234 123.172 327.234C125.328 327.234 127.344 326.938 129.219 326.344C131.125 325.75 132.969 324.906 134.75 323.812L138.359 330.469C136.047 332.094 133.484 333.375 130.672 334.312C127.859 335.219 124.891 335.672 121.766 335.672ZM108.5 305.766H130.719C130.719 301.828 129.859 298.766 128.141 296.578C126.422 294.359 123.875 293.25 120.5 293.25C117.562 293.25 114.953 294.328 112.672 296.484C110.391 298.641 109 301.734 108.5 305.766ZM171.828 335.672C167.391 335.672 163.375 334.672 159.781 332.672C156.188 330.641 153.328 327.734 151.203 323.953C149.078 320.172 148.016 315.609 148.016 310.266C148.016 305.016 149.078 300.484 151.203 296.672C153.359 292.859 156.141 289.922 159.547 287.859C162.953 285.797 166.547 284.766 170.328 284.766C176.797 284.766 181.734 286.906 185.141 291.188C188.547 295.438 190.25 300.984 190.25 307.828C190.25 308.859 190.203 309.859 190.109 310.828C190.016 311.797 189.906 312.594 189.781 313.219H158.703C159.141 317.625 160.672 321.062 163.297 323.531C165.922 326 169.234 327.234 173.234 327.234C175.391 327.234 177.406 326.938 179.281 326.344C181.188 325.75 183.031 324.906 184.812 323.812L188.422 330.469C186.109 332.094 183.547 333.375 180.734 334.312C177.922 335.219 174.953 335.672 171.828 335.672ZM158.562 305.766H180.781C180.781 301.828 179.922 298.766 178.203 296.578C176.484 294.359 173.938 293.25 170.562 293.25C167.625 293.25 165.016 294.328 162.734 296.484C160.453 298.641 159.062 301.734 158.562 305.766ZM201.312 353.859V285.984H210.312L211.203 291.188H211.438C213.5 289.438 215.797 287.938 218.328 286.688C220.891 285.406 223.516 284.766 226.203 284.766C232.266 284.766 236.969 287.016 240.312 291.516C243.688 296.016 245.375 302 245.375 309.469C245.375 315 244.391 319.719 242.422 323.625C240.453 327.531 237.875 330.516 234.688 332.578C231.531 334.641 228.156 335.672 224.562 335.672C222.406 335.672 220.266 335.219 218.141 334.312C216.016 333.375 213.953 332.047 211.953 330.328L212.281 338.438V353.859H201.312ZM222.312 326.672C225.656 326.672 228.453 325.219 230.703 322.312C232.984 319.406 234.125 315.172 234.125 309.609C234.125 304.703 233.25 300.844 231.5 298.031C229.781 295.188 227.016 293.766 223.203 293.766C219.797 293.766 216.156 295.672 212.281 299.484V322.5C214.094 324.031 215.844 325.109 217.531 325.734C219.25 326.359 220.844 326.672 222.312 326.672ZM257.984 334.5V269.766H269V325.266H296.141V334.5H257.984ZM326.141 335.672C322.109 335.672 318.344 334.688 314.844 332.719C311.375 330.719 308.562 327.828 306.406 324.047C304.25 320.234 303.172 315.641 303.172 310.266C303.172 304.891 304.25 300.312 306.406 296.531C308.562 292.719 311.375 289.812 314.844 287.812C318.344 285.781 322.109 284.766 326.141 284.766C330.172 284.766 333.938 285.781 337.438 287.812C340.938 289.812 343.766 292.719 345.922 296.531C348.078 300.312 349.156 304.891 349.156 310.266C349.156 315.641 348.078 320.234 345.922 324.047C343.766 327.828 340.938 330.719 337.438 332.719C333.938 334.688 330.172 335.672 326.141 335.672ZM326.141 326.812C329.797 326.812 332.672 325.297 334.766 322.266C336.891 319.234 337.953 315.234 337.953 310.266C337.953 305.297 336.891 301.297 334.766 298.266C332.672 295.234 329.797 293.719 326.141 293.719C322.484 293.719 319.609 295.234 317.516 298.266C315.453 301.297 314.422 305.297 314.422 310.266C314.422 315.234 315.453 319.234 317.516 322.266C319.609 325.297 322.484 326.812 326.141 326.812ZM377.562 356.016C373.656 356.016 370.188 355.547 367.156 354.609C364.125 353.703 361.734 352.312 359.984 350.438C358.234 348.562 357.359 346.203 357.359 343.359C357.359 341.297 357.969 339.375 359.188 337.594C360.406 335.844 362.125 334.297 364.344 332.953V332.531C363.094 331.75 362.047 330.703 361.203 329.391C360.391 328.078 359.984 326.438 359.984 324.469C359.984 322.562 360.531 320.828 361.625 319.266C362.75 317.672 363.984 316.391 365.328 315.422V315C363.672 313.812 362.203 312.109 360.922 309.891C359.641 307.672 359 305.125 359 302.25C359 298.562 359.875 295.422 361.625 292.828C363.406 290.203 365.734 288.203 368.609 286.828C371.484 285.453 374.625 284.766 378.031 284.766C379.344 284.766 380.609 284.891 381.828 285.141C383.047 285.359 384.141 285.641 385.109 285.984H402.453V294.094H393.453C394.234 295.062 394.906 296.297 395.469 297.797C396.062 299.266 396.359 300.844 396.359 302.531C396.359 306.125 395.531 309.156 393.875 311.625C392.25 314.094 390.047 315.969 387.266 317.25C384.516 318.5 381.438 319.125 378.031 319.125C376.969 319.125 375.859 319.016 374.703 318.797C373.578 318.578 372.469 318.25 371.375 317.812C370.594 318.438 369.984 319.109 369.547 319.828C369.109 320.547 368.891 321.469 368.891 322.594C368.891 324 369.469 325.109 370.625 325.922C371.781 326.703 373.859 327.094 376.859 327.094H385.625C391.375 327.094 395.75 328.047 398.75 329.953C401.75 331.828 403.25 334.844 403.25 339C403.25 342.156 402.188 345.016 400.062 347.578C397.969 350.172 395 352.219 391.156 353.719C387.312 355.25 382.781 356.016 377.562 356.016ZM378.031 312.234C380.406 312.234 382.438 311.359 384.125 309.609C385.844 307.859 386.703 305.406 386.703 302.25C386.703 299.125 385.859 296.703 384.172 294.984C382.516 293.234 380.469 292.359 378.031 292.359C375.562 292.359 373.5 293.234 371.844 294.984C370.188 296.703 369.359 299.125 369.359 302.25C369.359 305.406 370.188 307.859 371.844 309.609C373.531 311.359 375.594 312.234 378.031 312.234ZM379.203 348.891C383.203 348.891 386.438 348.062 388.906 346.406C391.406 344.781 392.656 342.891 392.656 340.734C392.656 338.797 391.906 337.484 390.406 336.797C388.938 336.109 386.797 335.766 383.984 335.766H377.047C374.516 335.766 372.328 335.531 370.484 335.062C369.109 336.062 368.125 337.125 367.531 338.25C366.938 339.406 366.641 340.562 366.641 341.719C366.641 344 367.75 345.766 369.969 347.016C372.188 348.266 375.266 348.891 379.203 348.891Z" fill="url(#paint9_linear_227_48)"/>
<defs>
<linearGradient id="paint0_linear_227_48" x1="122.124" y1="189.64" x2="122.124" y2="236.5" gradientUnits="userSpaceOnUse">
<stop stop-color="#1F4FA3"/>
<stop offset="1" stop-color="#1C1C1C"/>
</linearGradient>
<linearGradient id="paint1_linear_227_48" x1="296.415" y1="35.7916" x2="296.415" y2="233.395" gradientUnits="userSpaceOnUse">
<stop stop-color="#1F4FA3"/>
<stop offset="1" stop-color="#1C1C1C"/>
</linearGradient>
<linearGradient id="paint2_linear_227_48" x1="231.783" y1="79.2643" x2="231.783" y2="177.501" gradientUnits="userSpaceOnUse">
<stop stop-color="#1F4FA3"/>
<stop offset="1" stop-color="#1C1C1C"/>
</linearGradient>
<linearGradient id="paint3_linear_227_48" x1="203.069" y1="134.029" x2="203.069" y2="233.677" gradientUnits="userSpaceOnUse">
<stop stop-color="#1F4FA3"/>
<stop offset="1" stop-color="#1C1C1C"/>
</linearGradient>
<linearGradient id="paint4_linear_227_48" x1="231.783" y1="185.97" x2="231.783" y2="236.218" gradientUnits="userSpaceOnUse">
<stop stop-color="#1F4FA3"/>
<stop offset="1" stop-color="#1C1C1C"/>
</linearGradient>
<linearGradient id="paint5_linear_227_48" x1="177.445" y1="35.227" x2="177.445" y2="136.005" gradientUnits="userSpaceOnUse">
<stop stop-color="#1F4FA3"/>
<stop offset="1" stop-color="#1C1C1C"/>
</linearGradient>
<linearGradient id="paint6_linear_227_48" x1="166.692" y1="96.484" x2="166.692" y2="216.74" gradientUnits="userSpaceOnUse">
<stop stop-color="#1F4FA3"/>
<stop offset="1" stop-color="#1C1C1C"/>
</linearGradient>
<linearGradient id="paint7_linear_227_48" x1="193.232" y1="24.5" x2="193.232" y2="71.3602" gradientUnits="userSpaceOnUse">
<stop stop-color="#1F4FA3"/>
<stop offset="1" stop-color="#1C1C1C"/>
</linearGradient>
<linearGradient id="paint8_linear_227_48" x1="270.562" y1="24.5" x2="270.562" y2="71.3602" gradientUnits="userSpaceOnUse">
<stop stop-color="#1F4FA3"/>
<stop offset="1" stop-color="#1C1C1C"/>
</linearGradient>
<linearGradient id="paint9_linear_227_48" x1="405" y1="302" x2="35" y2="302" gradientUnits="userSpaceOnUse">
<stop offset="0.552885" stop-color="#1F4FA3"/>
<stop offset="1" stop-color="#1C1C1C"/>
</linearGradient>
</defs>
</svg>
